<mxfile host="app.diagrams.net" modified="2021-08-19T03:43:17.097Z" agent="5.0 (Windows NT 10.0; Win64; x64) AppleWebKit/537.36 (KHTML, like Gecko) Chrome/92.0.4515.131 Safari/537.36" etag="I5nAZzHCtoKeSTnd7ewr" version="14.9.6" type="github">
  <diagram name="Page-1" id="5f0bae14-7c28-e335-631c-24af17079c00">
    <mxGraphModel dx="2278" dy="899" grid="1" gridSize="10" guides="1" tooltips="1" connect="1" arrows="1" fold="1" page="1" pageScale="1" pageWidth="1100" pageHeight="850" background="none" math="0" shadow="0">
      <root>
        <mxCell id="0" />
        <mxCell id="1" parent="0" />
        <mxCell id="ZQfqY5YxMAcJQIeda2PZ-1" value="" style="rounded=0;whiteSpace=wrap;html=1;" vertex="1" parent="1">
          <mxGeometry x="200" y="160" width="800" height="440" as="geometry" />
        </mxCell>
        <mxCell id="ZQfqY5YxMAcJQIeda2PZ-2" value="InputReader" style="rounded=0;whiteSpace=wrap;html=1;" vertex="1" parent="1">
          <mxGeometry x="540" y="175" width="120" height="60" as="geometry" />
        </mxCell>
        <mxCell id="ZQfqY5YxMAcJQIeda2PZ-12" value="Linux Kernel" style="rounded=0;whiteSpace=wrap;html=1;" vertex="1" parent="1">
          <mxGeometry x="-160" y="235" width="120" height="285" as="geometry" />
        </mxCell>
        <mxCell id="ZQfqY5YxMAcJQIeda2PZ-13" value="/dev/input/event0&lt;br&gt;/dev/input/event1&lt;br&gt;/dev/input/event2&lt;br&gt;..." style="rounded=0;whiteSpace=wrap;html=1;" vertex="1" parent="1">
          <mxGeometry y="280" width="120" height="200" as="geometry" />
        </mxCell>
        <mxCell id="ZQfqY5YxMAcJQIeda2PZ-46" style="edgeStyle=orthogonalEdgeStyle;rounded=0;orthogonalLoop=1;jettySize=auto;html=1;exitX=1;exitY=0.5;exitDx=0;exitDy=0;" edge="1" parent="1" source="ZQfqY5YxMAcJQIeda2PZ-15" target="ZQfqY5YxMAcJQIeda2PZ-21">
          <mxGeometry relative="1" as="geometry" />
        </mxCell>
        <mxCell id="ZQfqY5YxMAcJQIeda2PZ-15" value="EventHub" style="swimlane;startSize=50;" vertex="1" parent="1">
          <mxGeometry x="200" y="323" width="160" height="145" as="geometry" />
        </mxCell>
        <mxCell id="ZQfqY5YxMAcJQIeda2PZ-16" value="getEvents" style="whiteSpace=wrap;html=1;" vertex="1" parent="ZQfqY5YxMAcJQIeda2PZ-15">
          <mxGeometry x="20" y="67" width="120" height="60" as="geometry" />
        </mxCell>
        <mxCell id="ZQfqY5YxMAcJQIeda2PZ-18" value="原始输入事件" style="shape=singleArrow;whiteSpace=wrap;html=1;" vertex="1" parent="1">
          <mxGeometry x="120" y="360" width="80" height="60" as="geometry" />
        </mxCell>
        <mxCell id="ZQfqY5YxMAcJQIeda2PZ-19" value="" style="shape=singleArrow;whiteSpace=wrap;html=1;" vertex="1" parent="1">
          <mxGeometry x="-40" y="375" width="40" height="30" as="geometry" />
        </mxCell>
        <mxCell id="ZQfqY5YxMAcJQIeda2PZ-49" style="edgeStyle=orthogonalEdgeStyle;rounded=0;orthogonalLoop=1;jettySize=auto;html=1;exitX=0.5;exitY=1;exitDx=0;exitDy=0;" edge="1" parent="1" source="ZQfqY5YxMAcJQIeda2PZ-21" target="ZQfqY5YxMAcJQIeda2PZ-22">
          <mxGeometry relative="1" as="geometry" />
        </mxCell>
        <mxCell id="ZQfqY5YxMAcJQIeda2PZ-21" value="loopOnce" style="html=1;" vertex="1" parent="1">
          <mxGeometry x="420" y="273" width="110" height="50" as="geometry" />
        </mxCell>
        <mxCell id="ZQfqY5YxMAcJQIeda2PZ-50" style="edgeStyle=orthogonalEdgeStyle;rounded=0;orthogonalLoop=1;jettySize=auto;html=1;exitX=0.5;exitY=1;exitDx=0;exitDy=0;entryX=0.5;entryY=0;entryDx=0;entryDy=0;" edge="1" parent="1" source="ZQfqY5YxMAcJQIeda2PZ-22" target="ZQfqY5YxMAcJQIeda2PZ-23">
          <mxGeometry relative="1" as="geometry" />
        </mxCell>
        <mxCell id="ZQfqY5YxMAcJQIeda2PZ-22" value="processEventsLock" style="html=1;" vertex="1" parent="1">
          <mxGeometry x="420" y="352.5" width="110" height="50" as="geometry" />
        </mxCell>
        <mxCell id="ZQfqY5YxMAcJQIeda2PZ-51" style="edgeStyle=orthogonalEdgeStyle;rounded=0;orthogonalLoop=1;jettySize=auto;html=1;entryX=0;entryY=0.5;entryDx=0;entryDy=0;" edge="1" parent="1" source="ZQfqY5YxMAcJQIeda2PZ-23" target="ZQfqY5YxMAcJQIeda2PZ-34">
          <mxGeometry relative="1" as="geometry" />
        </mxCell>
        <mxCell id="ZQfqY5YxMAcJQIeda2PZ-23" value="processEventsFor&lt;br&gt;DeviceLocked" style="html=1;" vertex="1" parent="1">
          <mxGeometry x="420" y="432.5" width="110" height="47.5" as="geometry" />
        </mxCell>
        <mxCell id="ZQfqY5YxMAcJQIeda2PZ-32" value="devices" style="swimlane;" vertex="1" parent="1">
          <mxGeometry x="570" y="273" width="165" height="217" as="geometry" />
        </mxCell>
        <mxCell id="ZQfqY5YxMAcJQIeda2PZ-34" value="InputDevice" style="rounded=0;whiteSpace=wrap;html=1;fillColor=#fff2cc;strokeColor=#d6b656;" vertex="1" parent="ZQfqY5YxMAcJQIeda2PZ-32">
          <mxGeometry x="22.5" y="77" width="120" height="30" as="geometry" />
        </mxCell>
        <mxCell id="ZQfqY5YxMAcJQIeda2PZ-35" value="InputDevice" style="rounded=0;whiteSpace=wrap;html=1;" vertex="1" parent="ZQfqY5YxMAcJQIeda2PZ-32">
          <mxGeometry x="22.5" y="122" width="120" height="30" as="geometry" />
        </mxCell>
        <mxCell id="ZQfqY5YxMAcJQIeda2PZ-33" value="InputDevice" style="rounded=0;whiteSpace=wrap;html=1;" vertex="1" parent="ZQfqY5YxMAcJQIeda2PZ-32">
          <mxGeometry x="22.5" y="37" width="120" height="30" as="geometry" />
        </mxCell>
        <mxCell id="ZQfqY5YxMAcJQIeda2PZ-36" value="..." style="rounded=0;whiteSpace=wrap;html=1;" vertex="1" parent="ZQfqY5YxMAcJQIeda2PZ-32">
          <mxGeometry x="22.5" y="177" width="120" height="30" as="geometry" />
        </mxCell>
        <mxCell id="ZQfqY5YxMAcJQIeda2PZ-37" value="VibratorImputMapper" style="rounded=0;whiteSpace=wrap;html=1;" vertex="1" parent="1">
          <mxGeometry x="780" y="230" width="120" height="30" as="geometry" />
        </mxCell>
        <mxCell id="ZQfqY5YxMAcJQIeda2PZ-38" value="SwitchInputMapper" style="rounded=0;whiteSpace=wrap;html=1;" vertex="1" parent="1">
          <mxGeometry x="780" y="270" width="120" height="30" as="geometry" />
        </mxCell>
        <mxCell id="ZQfqY5YxMAcJQIeda2PZ-39" value="KeyboardInputMapper" style="rounded=0;whiteSpace=wrap;html=1;" vertex="1" parent="1">
          <mxGeometry x="780" y="315" width="120" height="30" as="geometry" />
        </mxCell>
        <mxCell id="ZQfqY5YxMAcJQIeda2PZ-40" value="TouchInputMapper" style="rounded=0;whiteSpace=wrap;html=1;" vertex="1" parent="1">
          <mxGeometry x="780" y="355" width="120" height="30" as="geometry" />
        </mxCell>
        <mxCell id="ZQfqY5YxMAcJQIeda2PZ-41" value="MultiTouchInputMapper" style="rounded=0;whiteSpace=wrap;html=1;" vertex="1" parent="1">
          <mxGeometry x="780" y="395" width="120" height="30" as="geometry" />
        </mxCell>
        <mxCell id="ZQfqY5YxMAcJQIeda2PZ-42" value="..." style="rounded=0;whiteSpace=wrap;html=1;" vertex="1" parent="1">
          <mxGeometry x="780" y="440" width="120" height="30" as="geometry" />
        </mxCell>
        <mxCell id="ZQfqY5YxMAcJQIeda2PZ-43" value="InputListenerInterface" style="rounded=0;whiteSpace=wrap;html=1;" vertex="1" parent="1">
          <mxGeometry x="920" y="315" width="120" height="60" as="geometry" />
        </mxCell>
        <mxCell id="ZQfqY5YxMAcJQIeda2PZ-44" value="InputDispatcher" style="rounded=0;whiteSpace=wrap;html=1;" vertex="1" parent="1">
          <mxGeometry x="1040" y="355" width="120" height="60" as="geometry" />
        </mxCell>
      </root>
    </mxGraphModel>
  </diagram>
</mxfile>
